<svg width="247" height="78" viewBox="0 0 247 78" fill="none" xmlns="http://www.w3.org/2000/svg">
<path fill-rule="evenodd" clip-rule="evenodd" d="M19.9081 7.14937C19.9081 7.38337 23.1711 10.9764 27.1601 15.1324C40.9431 29.4924 57.4631 46.7074 59.9641 49.3154C61.7941 51.2234 62.5611 51.8744 62.7961 51.7164C62.9721 51.5974 67.5691 46.8534 73.0111 41.1754C78.4531 35.4974 83.1101 30.7034 83.3601 30.5234C84.3231 29.8274 84.3651 30.2364 84.5521 41.9674C84.8641 61.5734 85.0221 67.6364 85.2321 67.9754C85.4891 68.3934 97.4541 68.5984 98.4941 68.2034L99.1391 67.9584V37.6284C99.1391 14.3584 99.0721 7.23137 98.8511 7.01037C98.6471 6.80537 97.1971 6.72137 93.8541 6.72137H89.1451L85.4161 10.5034C83.3651 12.5834 77.4961 18.6334 72.3741 23.9484C67.0511 29.4724 62.8811 33.6124 62.6401 33.6124C62.0571 33.6124 62.3261 33.8774 52.1911 23.2884C47.1991 18.0724 41.5581 12.2114 39.6561 10.2634L36.1981 6.72137H28.0531C20.4051 6.72137 19.9081 6.74737 19.9081 7.14937ZM131.792 8.41237C117.077 9.53637 107.503 19.2604 105.847 34.7654C103.783 54.0904 112.846 68.1454 129.031 70.7184C145.682 73.3654 159.487 65.2314 163.239 50.5624C165.919 40.0844 164.249 27.3914 159.22 20.0154C153.579 11.7424 143.58 7.51137 131.792 8.41237ZM211.677 9.28937L206.928 9.37337L206.635 9.99337C206.474 10.3344 203.155 20.1314 199.259 31.7654C195.364 43.3984 192.049 52.9554 191.893 53.0034C191.445 53.1394 191.268 52.6804 187.206 40.8484C185.092 34.6894 182.336 26.6794 181.082 23.0484C179.828 19.4164 178.316 15.0114 177.723 13.2584C177.13 11.5054 176.483 9.91038 176.286 9.71338C175.637 9.06438 163.629 9.31537 163.534 9.98037C163.471 10.4184 168.168 23.7454 179.817 56.1814C181.691 61.3974 183.497 66.4754 183.831 67.4664C184.791 70.3124 184.211 70.1074 191.313 70.1034C194.693 70.1014 197.594 70.0144 197.758 69.9094C198.087 69.7004 198.767 67.8784 204.666 51.3794C209.205 38.6874 211.45 32.4274 212.459 29.6514C213.833 25.8724 218.431 13.0544 218.98 11.4724C219.81 9.08337 220.005 9.14237 211.677 9.28937ZM226.705 9.66337C226.413 10.1134 226.331 68.7194 226.621 69.4814L226.859 70.1074H232.633H238.407L238.641 69.4914C238.789 69.1034 238.875 58.0874 238.875 39.7354C238.875 21.3824 238.789 10.3664 238.641 9.97837L238.407 9.36237H232.653C228.313 9.36237 226.851 9.43637 226.705 9.66337ZM139.836 19.3104C149.256 21.8024 153.984 33.1154 151.237 46.5924C147.453 65.1604 123.513 65.7724 118.973 47.4184C115.44 33.1384 121.312 20.6524 132.393 18.8824C133.762 18.6644 138.4 18.9304 139.836 19.3104Z" fill="#5C5C5C"/>
<path fill-rule="evenodd" clip-rule="evenodd" d="M24.1851 6.66137C26.3391 6.70137 29.7961 6.70137 31.8681 6.66137C33.9391 6.62137 32.1771 6.58838 27.9511 6.58838C23.7251 6.58938 22.0301 6.62137 24.1851 6.66137ZM90.9161 6.65837C91.6091 6.70737 92.7441 6.70737 93.4371 6.65837C94.1301 6.61037 93.5631 6.57037 92.1771 6.57037C90.7901 6.57037 90.2231 6.61037 90.9161 6.65837ZM86.5271 9.18237L85.0941 10.6834L86.5941 9.25037C87.4201 8.46237 88.0951 7.78637 88.0951 7.74937C88.0951 7.57237 87.8581 7.78837 86.5271 9.18237ZM21.0981 8.94238C22.0931 10.0024 22.3091 10.1934 22.3091 10.0134C22.3091 9.97437 21.7951 9.46137 21.1681 8.87237L20.0281 7.80237L21.0981 8.94238ZM38.6351 9.24237C39.3521 9.96937 39.9931 10.5634 40.0591 10.5634C40.1251 10.5634 39.5931 9.96937 38.8751 9.24237C38.1581 8.51637 37.5171 7.92237 37.4511 7.92237C37.3851 7.92237 37.9181 8.51637 38.6351 9.24237ZM132.936 8.33237C133.234 8.38937 133.667 8.38737 133.896 8.32737C134.126 8.26737 133.881 8.22037 133.353 8.22337C132.825 8.22537 132.637 8.27437 132.936 8.33237ZM136.057 8.33237C136.356 8.38937 136.788 8.38737 137.017 8.32737C137.247 8.26737 137.003 8.22037 136.474 8.22337C135.946 8.22537 135.758 8.27437 136.057 8.33237ZM166.786 9.30237C168.404 9.34337 171.051 9.34337 172.669 9.30237C174.286 9.26037 172.963 9.22637 169.728 9.22637C166.492 9.22637 165.169 9.26037 166.786 9.30237ZM209.656 9.30137C210.95 9.34537 213.003 9.34537 214.218 9.30137C215.432 9.25837 214.373 9.22237 211.864 9.22237C209.355 9.22337 208.362 9.25837 209.656 9.30137ZM229.932 9.30237C231.417 9.34437 233.848 9.34437 235.334 9.30237C236.819 9.25937 235.604 9.22537 232.633 9.22537C229.662 9.22537 228.446 9.25937 229.932 9.30237ZM26.7501 14.8854C27.4011 15.5454 27.9871 16.0854 28.0531 16.0854C28.1191 16.0854 27.6411 15.5454 26.9911 14.8854C26.3401 14.2244 25.7541 13.6844 25.6881 13.6844C25.6221 13.6844 26.1001 14.2244 26.7501 14.8854ZM44.6381 15.4854C45.3551 16.2114 45.9961 16.8054 46.0621 16.8054C46.1281 16.8054 45.5951 16.2114 44.8781 15.4854C44.1601 14.7594 43.5201 14.1644 43.4531 14.1644C43.3871 14.1644 43.9201 14.7594 44.6381 15.4854ZM114.018 16.0254L112.465 17.6464L114.085 16.0924C114.977 15.2384 115.706 14.5084 115.706 14.4714C115.706 14.2954 115.462 14.5204 114.018 16.0254ZM79.8041 16.1454L78.3711 17.6464L79.8721 16.2134C80.6971 15.4254 81.3721 14.7494 81.3721 14.7124C81.3721 14.5354 81.1351 14.7514 79.8041 16.1454ZM32.7531 21.1274C33.2691 21.6554 33.7451 22.0884 33.8111 22.0884C33.8771 22.0884 33.5091 21.6554 32.9931 21.1274C32.4771 20.5994 32.0011 20.1674 31.9351 20.1674C31.8691 20.1674 32.2371 20.5994 32.7531 21.1274ZM50.2801 21.3674C50.7961 21.8954 51.2721 22.3284 51.3381 22.3284C51.4041 22.3284 51.0361 21.8954 50.5201 21.3674C50.0041 20.8394 49.5281 20.4074 49.4621 20.4074C49.3961 20.4074 49.7641 20.8394 50.2801 21.3674ZM73.2021 22.9884L71.6481 24.6094L73.2691 23.0554C74.7741 21.6124 74.9991 21.3674 74.8231 21.3674C74.7861 21.3674 74.0571 22.0974 73.2021 22.9884ZM38.5151 27.1304C39.2991 27.9224 39.9951 28.5704 40.0611 28.5704C40.1271 28.5704 39.5391 27.9224 38.7551 27.1304C37.9711 26.3374 37.2761 25.6894 37.2101 25.6894C37.1441 25.6894 37.7311 26.3374 38.5151 27.1304ZM56.1621 27.4904C56.8791 28.2164 57.5201 28.8104 57.5861 28.8104C57.6521 28.8104 57.1201 28.2164 56.4021 27.4904C55.6851 26.7634 55.0441 26.1694 54.9781 26.1694C54.9121 26.1694 55.4451 26.7634 56.1621 27.4904ZM66.5991 29.8314L65.1661 31.3314L66.6661 29.8984C68.0601 28.5674 68.2771 28.3304 68.0991 28.3304C68.0621 28.3304 67.3871 29.0054 66.5991 29.8314ZM84.3191 32.1724C84.3191 32.7664 84.3661 33.0094 84.4231 32.7124C84.4801 32.4154 84.4801 31.9284 84.4231 31.6314C84.3661 31.3344 84.3191 31.5774 84.3191 32.1724ZM44.3971 33.2524C45.1151 33.9784 45.7561 34.5734 45.8221 34.5734C45.8881 34.5734 45.3551 33.9784 44.6381 33.2524C43.9201 32.5264 43.2791 31.9314 43.2131 31.9314C43.1471 31.9314 43.6801 32.5264 44.3971 33.2524ZM77.8821 36.0734L76.6901 37.3344L77.9511 36.1424C79.1221 35.0354 79.3221 34.8134 79.1421 34.8134C79.1041 34.8134 78.5371 35.3804 77.8821 36.0734ZM118.168 37.5744C118.17 38.1024 118.219 38.2904 118.277 37.9914C118.334 37.6924 118.332 37.2604 118.272 37.0314C118.212 36.8014 118.165 37.0464 118.168 37.5744ZM151.781 37.5744C151.784 38.1024 151.833 38.2904 151.89 37.9914C151.948 37.6924 151.945 37.2604 151.885 37.0314C151.825 36.8014 151.778 37.0464 151.781 37.5744ZM17.5531 37.5184C17.4061 37.6954 17.2681 39.4894 17.2231 41.8044C17.1241 46.9684 17.5121 46.5774 12.4831 46.5774C7.49414 46.5774 7.90314 46.1564 7.90314 51.2934C7.90314 56.2664 7.42214 55.8004 12.6581 55.9014L16.8141 55.9814L17.0401 56.5774C17.1651 56.9054 17.2671 58.8974 17.2671 61.0054V64.8374L17.8821 65.0714C18.2211 65.1994 19.7811 65.3054 21.3481 65.3054C22.9161 65.3054 24.4751 65.1994 24.8141 65.0714L25.4301 64.8374V61.0054C25.4301 58.8974 25.5321 56.9054 25.6561 56.5774L25.8831 55.9814L30.0871 55.9014C35.3341 55.8014 34.9141 56.2034 34.9141 51.2844C34.9141 46.1924 35.2981 46.5774 30.2161 46.5774C25.0901 46.5774 25.4301 46.9284 25.4301 41.6504C25.4301 38.9684 25.3421 37.7024 25.1421 37.5024C24.7251 37.0854 17.9001 37.1004 17.5531 37.5184ZM50.1501 39.1944C51.1451 40.2544 51.3601 40.4454 51.3601 40.2654C51.3601 40.2264 50.8471 39.7134 50.2201 39.1244L49.0791 38.0544L50.1501 39.1944ZM164.522 39.8554C164.522 40.7134 164.566 41.0644 164.619 40.6354C164.672 40.2064 164.672 39.5044 164.619 39.0744C164.566 38.6454 164.522 38.9964 164.522 39.8554ZM72.2401 41.9554L70.9281 43.3364L72.3091 42.0244C73.0681 41.3024 73.6891 40.6814 73.6891 40.6434C73.6891 40.4654 73.4601 40.6734 72.2401 41.9554ZM118.168 41.4154C118.17 41.9434 118.219 42.1314 118.277 41.8334C118.334 41.5344 118.332 41.1024 118.272 40.8724C118.212 40.6434 118.165 40.8874 118.168 41.4154ZM151.781 41.4154C151.784 41.9434 151.833 42.1314 151.89 41.8334C151.948 41.5344 151.945 41.1024 151.885 40.8724C151.825 40.6434 151.778 40.8874 151.781 41.4154ZM84.5801 45.8574C84.5801 47.1124 84.6211 47.6254 84.6701 46.9984C84.7191 46.3704 84.7191 45.3444 84.6701 44.7174C84.6211 44.0894 84.5801 44.6034 84.5801 45.8574ZM55.9121 45.1974C56.9071 46.2574 57.1231 46.4474 57.1231 46.2674C57.1231 46.2294 56.6091 45.7154 55.9821 45.1274L54.8421 44.0564L55.9121 45.1974ZM66.2381 48.1984L64.9261 49.5794L66.3061 48.2664C67.0661 47.5444 67.6871 46.9234 67.6871 46.8864C67.6871 46.7074 67.4571 46.9154 66.2381 48.1984ZM146.303 56.2414L145.598 57.0224L146.378 56.3164C146.807 55.9284 147.159 55.5774 147.159 55.5364C147.159 55.3514 146.96 55.5144 146.303 56.2414ZM84.8191 62.5444C84.8181 63.7324 84.8591 64.2494 84.9091 63.6914C84.9591 63.1344 84.9601 62.1624 84.9101 61.5314C84.8611 60.8994 84.8201 61.3554 84.8191 62.5444ZM113.665 63.1444C114.316 63.8044 114.902 64.3444 114.968 64.3444C115.034 64.3444 114.556 63.8044 113.905 63.1444C113.255 62.4844 112.669 61.9434 112.603 61.9434C112.537 61.9434 113.015 62.4844 113.665 63.1444ZM156.042 63.2644C155.459 63.8584 155.036 64.3444 155.102 64.3444C155.168 64.3444 155.699 63.8584 156.282 63.2644C156.865 62.6704 157.289 62.1844 157.223 62.1844C157.157 62.1844 156.625 62.6704 156.042 63.2644ZM188.529 70.2864C190.22 70.3284 192.922 70.3274 194.531 70.2864C196.141 70.2454 194.758 70.2114 191.456 70.2114C188.155 70.2114 186.838 70.2454 188.529 70.2864ZM229.932 70.2864C231.417 70.3284 233.848 70.3284 235.334 70.2864C236.819 70.2444 235.604 70.2094 232.633 70.2094C229.662 70.2094 228.446 70.2444 229.932 70.2864ZM133.416 71.2374C133.715 71.2944 134.147 71.2924 134.376 71.2324C134.606 71.1724 134.361 71.1254 133.833 71.1284C133.305 71.1304 133.117 71.1804 133.416 71.2374ZM136.057 71.2374C136.356 71.2944 136.788 71.2924 137.017 71.2324C137.247 71.1724 137.003 71.1254 136.474 71.1284C135.946 71.1304 135.758 71.1804 136.057 71.2374Z" fill="#2EC4CC"/>
</svg>
